<svg id="Layer_3" enable-background="new 0 0 64 64" height="512" viewBox="0 0 64 64" width="512" xmlns="http://www.w3.org/2000/svg"><g><path fill="#CCA01C" d="m32 1c-17.094 0-31 13.906-31 31s13.906 31 31 31 31-13.906 31-31-13.906-31-31-31zm0 60c-15.99 0-29-13.01-29-29s13.01-29 29-29 29 13.01 29 29-13.01 29-29 29z"/><path fill="#CCA01C" d="m7.664 26.255-1.947-.459c-.156.664-.289 1.347-.396 2.029l1.977.307c.098-.632.222-1.263.366-1.877z"/><path fill="#CCA01C" d="m56.712 28.185 1.977-.301c-.103-.674-.233-1.356-.391-2.031l-1.947.453c.144.624.266 1.256.361 1.879z"/><path fill="#CCA01C" d="m10.528 19.189-1.717-1.027c-.35.586-.684 1.195-.991 1.812l1.789.893c.286-.571.595-1.136.919-1.678z"/><path fill="#CCA01C" d="m15.393 13.312-1.33-1.494c-.515.458-1.017.939-1.491 1.432l1.439 1.389c.439-.455.904-.902 1.382-1.327z"/><path fill="#CCA01C" d="m12.735 16.065-1.541-1.275c-.434.523-.855 1.075-1.256 1.64l1.633 1.156c.37-.524.762-1.035 1.164-1.521z"/><path fill="#CCA01C" d="m7.64 37.643-1.95.451c.157.678.34 1.349.543 1.995l1.908-.6c-.188-.597-.357-1.218-.501-1.846z"/><path fill="#CCA01C" d="m7.076 30.033-1.994-.154c-.053.678-.08 1.372-.082 2.063l2 .006c.002-.642.027-1.286.076-1.915z"/><path fill="#CCA01C" d="m55.844 24.461 1.906-.604c-.207-.656-.442-1.312-.698-1.947l-1.855.746c.237.59.454 1.197.647 1.805z"/><path fill="#CCA01C" d="m7.067 33.861-1.994.146c.05.685.127 1.376.23 2.055l1.977-.299c-.094-.628-.166-1.268-.213-1.902z"/><path fill="#CCA01C" d="m8.784 41.293-1.855.744c.256.639.539 1.274.842 1.89l1.795-.885c-.282-.568-.544-1.157-.782-1.749z"/><path fill="#CCA01C" d="m51.459 13.283c-.478-.497-.979-.979-1.49-1.435l-1.33 1.494c.473.42.937.866 1.379 1.327z"/><path fill="#CCA01C" d="m44.914 8.283c-.598-.326-1.22-.636-1.85-.92l-.822 1.823c.584.264 1.16.551 1.713.853z"/><path fill="#CCA01C" d="m18.438 10.995-1.086-1.68c-.582.377-1.151.777-1.693 1.19l1.213 1.59c.5-.381 1.027-.751 1.566-1.1z"/><path fill="#CCA01C" d="m52.454 17.622 1.635-1.152c-.395-.56-.816-1.112-1.254-1.643l-1.543 1.271c.405.493.796 1.006 1.162 1.524z"/><path fill="#CCA01C" d="m37.164 5.493c-.677-.131-1.363-.237-2.042-.314l-.229 1.986c.628.072 1.265.17 1.892.291z"/><path fill="#CCA01C" d="m48.378 10.532c-.543-.415-1.111-.815-1.689-1.191l-1.09 1.678c.535.348 1.062.719 1.564 1.104z"/><path fill="#CCA01C" d="m41.147 6.589c-.649-.233-1.312-.443-1.97-.624l-.531 1.928c.609.168 1.223.362 1.825.579z"/><path fill="#CCA01C" d="m29.159 7.159-.225-1.986c-.691.078-1.38.183-2.045.312l.379 1.963c.615-.119 1.252-.216 1.891-.289z"/><path fill="#CCA01C" d="m21.802 9.169-.818-1.826c-.627.281-1.251.59-1.854.918l.955 1.758c.558-.304 1.136-.59 1.717-.85z"/><path fill="#CCA01C" d="m54.412 20.91 1.791-.889c-.301-.606-.633-1.217-.987-1.815l-1.721 1.021c.33.555.638 1.122.917 1.683z"/><path fill="#CCA01C" d="m32.986 7.019.074-1.998c-.682-.026-1.378-.028-2.065-.002l.072 1.998c.641-.022 1.285-.022 1.919.002z"/><path fill="#CCA01C" d="m8.823 22.61-1.853-.75c-.258.637-.494 1.291-.702 1.944l1.906.605c.192-.603.411-1.209.649-1.799z"/><path fill="#CCA01C" d="m49.953 49.397 1.436 1.393c.476-.491.94-1.008 1.381-1.538l-1.537-1.279c-.41.491-.839.97-1.28 1.424z"/><path fill="#CCA01C" d="m36.682 56.562.371 1.965c.682-.129 1.359-.284 2.016-.463l-.523-1.93c-.608.165-1.234.309-1.864.428z"/><path fill="#CCA01C" d="m52.399 46.456 1.631 1.158c.397-.56.778-1.142 1.131-1.731l-1.715-1.027c-.327.543-.678 1.082-1.047 1.6z"/><path fill="#CCA01C" d="m40.371 55.563.672 1.885c.643-.229 1.288-.487 1.92-.768l-.811-1.828c-.586.26-1.185.5-1.781.711z"/><path fill="#CCA01C" d="m43.869 54.008.951 1.76c.611-.331 1.21-.685 1.78-1.054l-1.084-1.68c-.527.34-1.081.668-1.647.974z"/><path fill="#CCA01C" d="m47.087 51.936 1.209 1.594c.549-.417 1.087-.857 1.599-1.312l-1.326-1.496c-.474.42-.973.828-1.482 1.214z"/><path fill="#CCA01C" d="m58.922 29.936-1.994.15c.048.634.072 1.277.072 1.914v.108h2v-.108c0-.687-.026-1.382-.078-2.064z"/><path fill="#CCA01C" d="m56.694 35.919 1.977.311c.105-.673.188-1.363.243-2.052l-1.994-.16c-.051.638-.127 1.278-.226 1.901z"/><path fill="#CCA01C" d="m55.812 39.64 1.904.609c.212-.661.398-1.332.555-1.993l-1.947-.459c-.144.61-.317 1.23-.512 1.843z"/><path fill="#CCA01C" d="m54.367 43.178 1.789.896c.306-.611.593-1.244.854-1.881l-1.852-.758c-.241.591-.507 1.177-.791 1.743z"/><path fill="#CCA01C" d="m24.876 5.95c-.665.182-1.328.391-1.972.621l.674 1.883c.595-.213 1.209-.406 1.825-.574z"/><path fill="#CCA01C" d="m17.263 54.627c.568.372 1.165.729 1.772 1.062l.963-1.752c-.563-.31-1.115-.641-1.642-.984z"/><path fill="#CCA01C" d="m20.885 56.613c.623.281 1.267.544 1.913.778l.684-1.879c-.6-.218-1.196-.461-1.772-.722z"/><path fill="#CCA01C" d="m10.478 44.728-1.721 1.02c.347.586.725 1.171 1.121 1.737l1.639-1.146c-.369-.527-.718-1.068-1.039-1.611z"/><path fill="#CCA01C" d="m13.987 52.113c.508.455 1.042.898 1.588 1.318l1.221-1.584c-.507-.391-1.003-.803-1.475-1.225z"/><path fill="#CCA01C" d="m11.129 49.131c.434.526.895 1.046 1.371 1.544l1.445-1.381c-.441-.463-.87-.945-1.271-1.435z"/><path fill="#CCA01C" d="m32.878 56.985.07 1.998c.695-.024 1.389-.074 2.061-.149l-.223-1.988c-.621.07-1.264.116-1.908.139z"/><path fill="#CCA01C" d="m28.822 58.814c.685.081 1.379.136 2.062.162l.078-1.998c-.631-.025-1.272-.075-1.906-.15z"/><path fill="#CCA01C" d="m24.767 58.021c.665.185 1.343.345 2.014.476l.383-1.963c-.62-.121-1.246-.27-1.861-.44z"/><path fill="#CCA01C" d="m18 47h4c.553 0 1-.447 1-1v-28c0-.553-.447-1-1-1h-6c-.266 0-.52.105-.707.293l-4 4c-.391.391-.391 1.023 0 1.414l3 3c.391.391 1.023.391 1.414 0l1.293-1.293v21.586c0 .553.447 1 1 1zm-3-23.414-1.586-1.586 3-3h4.586v26h-2v-23c0-.404-.243-.77-.617-.924-.375-.155-.804-.069-1.09.217z"/><path fill="#CCA01C" d="m42.923 22.385c.051-.122.077-.253.077-.385v-4c0-.553-.447-1-1-1h-16c-.553 0-1 .447-1 1v4c0 .553.447 1 1 1h9.5l-9.423 22.615c-.129.309-.095.661.091.939s.498.446.832.446h5c.403 0 .768-.243.923-.615zm-11.59 22.615h-2.833l9.423-22.615c.129-.309.095-.661-.091-.939s-.498-.446-.832-.446h-10v-2h14v2.8z"/><path fill="#CCA01C" d="m45 35v4c0 .553.447 1 1 1h4c.553 0 1-.447 1-1v-4h4c.553 0 1-.447 1-1v-4c0-.553-.447-1-1-1h-4v-4c0-.553-.447-1-1-1h-4c-.553 0-1 .447-1 1v4h-4c-.553 0-1 .447-1 1v4c0 .553.447 1 1 1zm-3-4h4c.553 0 1-.447 1-1v-4h2v4c0 .553.447 1 1 1h4v2h-4c-.553 0-1 .447-1 1v4h-2v-4c0-.553-.447-1-1-1h-4z"/></g></svg>