<?xml version="1.0" encoding="iso-8859-1"?>
<!-- Generator: Adobe Illustrator 18.0.0, SVG Export Plug-In . SVG Version: 6.00 Build 0)  -->
<!DOCTYPE svg PUBLIC "-//W3C//DTD SVG 1.1//EN" "http://www.w3.org/Graphics/SVG/1.1/DTD/svg11.dtd">
<svg version="1.1" id="Capa_1" xmlns="http://www.w3.org/2000/svg" xmlns:xlink="http://www.w3.org/1999/xlink" x="0px" y="0px"
	 viewBox="0 0 459.645 459.645" style="enable-background:new 0 0 459.645 459.645;" xml:space="preserve">
<g>
	<path fill="#CCA01C" d="M74.809,167.308h56.729v-56.729H74.809V167.308z M83.809,119.579h38.729v38.729H83.809V119.579z"/>
	<path fill="#CCA01C" d="M153.859,167.308h56.729v-56.729h-56.729V167.308z M162.859,119.579h38.729v38.729h-38.729V119.579z
		"/>
	<path fill="#CCA01C" d="M74.809,250.375h56.729v-56.729H74.809V250.375z M83.809,202.646h38.729v38.729H83.809V202.646z"/>
	<path fill="#CCA01C" d="M153.859,250.375h56.729v-56.729h-56.729V250.375z M162.859,202.646h38.729v38.729h-38.729V202.646z
		"/>
	<path fill="#CCA01C" d="M74.809,416.511h56.729v-56.729H74.809V416.511z M83.809,368.782h38.729v38.729H83.809V368.782z"/>
	<path fill="#CCA01C" d="M74.809,333.442h56.729v-56.729H74.809V333.442z M83.809,285.714h38.729v38.729H83.809V285.714z"/>
	<path fill="#CCA01C" d="M153.859,333.442h56.729v-56.729h-56.729V333.442z M162.859,285.714h38.729v38.729h-38.729V285.714z
		"/>
	<path fill="#CCA01C" d="M398.903,450.645v-84.737h-9v18.634H378.46v-18.634h-9v18.634h-11.444v-18.634h-9v18.634h-11.447
		v-76.046c28.301-1.055,51.003-24.394,51.003-52.949v-39.697c0-29.225-23.775-53-53-53h-4.998c-29.225,0-53,23.775-53,53v39.697
		c0,28.552,22.697,51.89,50.995,52.949v76.046h-11.439v-18.634h-9v18.634h-11.444v-18.634h-9v18.634h-11.443v-18.634h-9v18.634
		h-11.444v-18.634h-9v18.634h-11.443v-18.634V85.516L142.698,0L50.043,85.516v374.129h359.559v-9H398.903z M286.573,255.546v-39.697
		c0-24.262,19.738-44,44-44h4.998c24.262,0,44,19.738,44,44v39.697c0,24.262-19.738,44-44,44h-4.998
		C306.312,299.546,286.573,279.808,286.573,255.546z M389.903,393.541v57.104H378.46v-57.104H389.903z M369.46,393.541v57.104
		h-11.444v-57.104H369.46z M349.016,393.541v57.104h-11.447v-57.104H349.016z M328.568,393.541v57.104h-11.439v-57.104H328.568z
		 M308.129,393.541v57.104h-11.444v-57.104H308.129z M287.685,393.541v57.104h-11.443v-57.104H287.685z M267.241,393.541v57.104
		h-11.444v-57.104H267.241z M201.588,450.623h-38.729v-63.85c0-10.678,8.687-19.364,19.364-19.364s19.364,8.687,19.364,19.364
		V450.623z M210.588,450.645v-63.871c0-15.64-12.725-28.364-28.364-28.364s-28.364,12.725-28.364,28.364v63.871H59.043V89.457
		l83.655-77.209l83.655,77.209v276.45v18.634v66.104H210.588z M235.354,393.541h11.443v57.104h-11.443V393.541z"/>
	<path fill="#CCA01C" d="M164.022,56.761c0-11.758-9.566-21.324-21.324-21.324s-21.324,9.566-21.324,21.324
		s9.566,21.324,21.324,21.324S164.022,68.519,164.022,56.761z M142.698,69.085c-6.796,0-12.324-5.528-12.324-12.324
		s5.528-12.324,12.324-12.324s12.324,5.528,12.324,12.324S149.494,69.085,142.698,69.085z"/>
	<path fill="#CCA01C" d="M318.694,243.638c-7.699,0-13.964,6.264-13.964,13.963s6.265,13.964,13.964,13.964
		s13.963-6.265,13.963-13.964S326.394,243.638,318.694,243.638z M318.694,262.564c-2.737,0-4.964-2.227-4.964-4.964
		c0-2.736,2.227-4.963,4.964-4.963c2.736,0,4.963,2.227,4.963,4.963C323.657,260.338,321.431,262.564,318.694,262.564z"/>
	<path fill="#CCA01C" d="M344.981,231.607c8.859,0,16.067-7.208,16.067-16.067s-7.208-16.066-16.067-16.066
		s-16.066,7.207-16.066,16.066S336.122,231.607,344.981,231.607z M344.981,208.474c3.896,0,7.067,3.17,7.067,7.066
		s-3.171,7.067-7.067,7.067s-7.066-3.171-7.066-7.067S341.085,208.474,344.981,208.474z"/>
	<path fill="#CCA01C" d="M189.063,405.865v9.464c0,2.485,2.015,4.5,4.5,4.5s4.5-2.015,4.5-4.5v-9.464
		c0-2.485-2.015-4.5-4.5-4.5S189.063,403.38,189.063,405.865z"/>
</g>
<g>
</g>
<g>
</g>
<g>
</g>
<g>
</g>
<g>
</g>
<g>
</g>
<g>
</g>
<g>
</g>
<g>
</g>
<g>
</g>
<g>
</g>
<g>
</g>
<g>
</g>
<g>
</g>
<g>
</g>
</svg>
