<svg id="Outline" height="512" viewBox="0 0 64 64" width="512" xmlns="http://www.w3.org/2000/svg"><path fill="#CCA01C" d="m5 62h37v-2h-9v-8h5v-2h-20v-2h20v-2h-20a2.002 2.002 0 0 0 -2 2v1h-6v-2a3.99624 3.99624 0 0 0 -3-3.858v-3.142a1.0013 1.0013 0 0 1 1-1h30v-2h-30a3.00328 3.00328 0 0 0 -3 3v3.142a3.99624 3.99624 0 0 0 -3 3.858v12a3.00328 3.00328 0 0 0 3 3zm26-10v8h-11v-8zm-14.72186-1a1.99313 1.99313 0 0 0 1.72186 1v8h-8v-9zm-12.27814-4a2 2 0 0 1 4 0v13h-3a1.0013 1.0013 0 0 1 -1-1z"/><path fill="#CCA01C" d="m31 2v9h-10a3.00328 3.00328 0 0 0 -3 3v2a3.00328 3.00328 0 0 0 3 3h.38184l2.17089 4.3418a2.98411 2.98411 0 0 0 2.68311 1.6582h11.52832a2.98411 2.98411 0 0 0 2.68311-1.6582l2.17089-4.3418h.38184a3.00328 3.00328 0 0 0 3-3v-2a3.00328 3.00328 0 0 0 -3-3h-10v-9zm5 15v-4h4v4zm-12 0v-4h4v4zm11.38184 2-2 4h-2.76368l-2-4zm-1.38184-2h-4v-4h4zm-14-1v-2a1.0013 1.0013 0 0 1 1-1h1v4h-1a1.0013 1.0013 0 0 1 -1-1zm5.3418 6.44727-1.72364-3.44727h2.76368l2 4h-2.146a.9945.9945 0 0 1 -.89404-.55273zm13.3164 0a.9945.9945 0 0 1 -.894.55273h-2.146l2-4h2.76368zm5.3418-8.44727v2a1.0013 1.0013 0 0 1 -1 1h-1v-4h1a1.0013 1.0013 0 0 1 1 1z"/><path fill="#CCA01C" d="m31 31h2v3h-2z"/><path fill="#CCA01C" d="m16.712 25.789h3v2h-3z" transform="matrix(.707 -.707 .707 .707 -13.608 20.724)"/><path fill="#CCA01C" d="m11 12h3v2h-3z"/><path fill="#CCA01C" d="m50 12h3v2h-3z"/><path fill="#CCA01C" d="m44.789 25.289h2v3h-2z" transform="matrix(.707 -.707 .707 .707 -5.531 40.224)"/><circle cx="28" cy="56" r="1"/><circle cx="36" cy="56" r="1"/><path fill="#CCA01C" d="m59 38h-3v-3a3.00328 3.00328 0 0 0 -3-3h-4a3.00328 3.00328 0 0 0 -3 3v3h-3a3.00328 3.00328 0 0 0 -3 3v14a3.00328 3.00328 0 0 0 3 3h1.18427a2.96457 2.96457 0 0 0 -.18427 1 3 3 0 0 0 6 0 2.96457 2.96457 0 0 0 -.18427-1h2.36854a2.96457 2.96457 0 0 0 -.18427 1 3 3 0 0 0 6 0 2.96457 2.96457 0 0 0 -.18427-1h1.18427a3.00328 3.00328 0 0 0 3-3v-14a3.00328 3.00328 0 0 0 -3-3zm-11-3a1.0013 1.0013 0 0 1 1-1h4a1.0013 1.0013 0 0 1 1 1v3h-6zm0 24a1 1 0 1 1 -1-1 1.0013 1.0013 0 0 1 1 1zm8 0a1 1 0 1 1 -1-1 1.0013 1.0013 0 0 1 1 1zm4-4a1.0013 1.0013 0 0 1 -1 1h-16a1.0013 1.0013 0 0 1 -1-1v-14a1.0013 1.0013 0 0 1 1-1h2v12h2v-12h3v12h2v-12h3v12h2v-12h2a1.0013 1.0013 0 0 1 1 1z"/></svg>