<?xml version="1.0" encoding="iso-8859-1"?>
<!-- Generator: Adobe Illustrator 19.0.0, SVG Export Plug-In . SVG Version: 6.00 Build 0)  -->
<svg version="1.1" id="Capa_1" xmlns="http://www.w3.org/2000/svg" xmlns:xlink="http://www.w3.org/1999/xlink" x="0px" y="0px"
	 viewBox="0 0 512.002 512.002" style="enable-background:new 0 0 512.002 512.002;" xml:space="preserve">
<g>
	<g>
		<path fill="#CCA01C" d="M487.635,51.376h-52.198c-4.025,0-7.287,3.262-7.287,7.287c0,4.025,3.262,7.287,7.287,7.287h52.198
			c4.34,0,7.87,3.53,7.87,7.869v415.74c0,4.34-3.53,7.87-7.87,7.87H53.856c-20.599,0-37.357-16.758-37.357-37.357
			c0-20.598,16.76-37.356,37.361-37.356c15.873,0,30.048,10.067,35.272,25.05c1.2,3.443,4.451,5.756,8.087,5.756
			c4.727,0,8.573-3.846,8.573-8.573v-379h284.371c4.025,0,7.287-3.262,7.287-7.287c0-4.025-3.262-7.287-7.287-7.287H105.778
			c-0.006-0.24-0.026-0.476-0.035-0.716c-0.016-0.419-0.036-0.837-0.061-1.253c-0.028-0.456-0.063-0.909-0.102-1.362
			c-0.036-0.416-0.076-0.831-0.122-1.245c-0.05-0.448-0.107-0.893-0.168-1.338c-0.057-0.412-0.116-0.824-0.182-1.233
			c-0.071-0.439-0.149-0.875-0.23-1.31c-0.077-0.409-0.156-0.818-0.242-1.224c-0.091-0.429-0.189-0.854-0.291-1.279
			c-0.097-0.405-0.195-0.808-0.301-1.209c-0.111-0.419-0.229-0.835-0.349-1.251c-0.116-0.399-0.233-0.797-0.358-1.192
			c-0.13-0.41-0.267-0.816-0.406-1.222c-0.134-0.392-0.27-0.783-0.413-1.171c-0.148-0.4-0.303-0.795-0.46-1.19
			c-0.153-0.386-0.307-0.771-0.469-1.152c-0.165-0.388-0.338-0.772-0.512-1.155c-0.171-0.378-0.343-0.756-0.523-1.13
			c-0.182-0.378-0.372-0.75-0.563-1.123c-0.189-0.369-0.378-0.738-0.575-1.102c-0.199-0.368-0.406-0.73-0.614-1.092
			c-0.205-0.359-0.41-0.717-0.623-1.07c-0.215-0.357-0.439-0.708-0.663-1.059c-0.222-0.348-0.442-0.697-0.671-1.039
			c-0.231-0.346-0.471-0.685-0.71-1.025c-0.237-0.336-0.472-0.673-0.716-1.003c-0.247-0.335-0.503-0.663-0.758-0.991
			c-0.251-0.324-0.501-0.649-0.759-0.966c-0.262-0.322-0.533-0.637-0.802-0.953c-0.266-0.312-0.53-0.625-0.803-0.93
			c-0.277-0.31-0.562-0.611-0.845-0.914c-0.279-0.298-0.557-0.598-0.843-0.89c-0.292-0.297-0.592-0.586-0.89-0.876
			c-0.292-0.283-0.581-0.569-0.879-0.846c-0.306-0.285-0.621-0.56-0.934-0.837c-0.303-0.268-0.603-0.539-0.912-0.801
			c-0.322-0.272-0.651-0.533-0.979-0.798c-0.313-0.252-0.623-0.507-0.941-0.752c-0.336-0.258-0.68-0.505-1.022-0.755
			c-0.323-0.236-0.643-0.476-0.972-0.704c-0.348-0.243-0.705-0.473-1.059-0.708c-0.333-0.22-0.664-0.445-1.002-0.657
			c-0.362-0.228-0.732-0.443-1.1-0.662c-0.341-0.203-0.679-0.41-1.024-0.605c-0.377-0.213-0.762-0.412-1.144-0.615
			c-0.347-0.185-0.691-0.375-1.043-0.551c-0.392-0.197-0.792-0.38-1.19-0.567c-0.352-0.165-0.7-0.337-1.056-0.495
			c-0.408-0.181-0.823-0.346-1.236-0.516c-0.355-0.146-0.707-0.3-1.066-0.438c-0.423-0.163-0.854-0.31-1.283-0.463
			c-0.357-0.127-0.711-0.261-1.071-0.381c-0.441-0.146-0.89-0.274-1.336-0.408c-0.356-0.107-0.709-0.222-1.068-0.321
			c-0.458-0.127-0.922-0.235-1.385-0.349c-0.356-0.088-0.708-0.184-1.067-0.264c-0.479-0.107-0.965-0.194-1.449-0.287
			c-0.348-0.067-0.693-0.144-1.044-0.204c-0.516-0.088-1.039-0.155-1.561-0.228c-0.325-0.045-0.646-0.101-0.972-0.14
			c-0.583-0.069-1.171-0.116-1.76-0.166c-0.271-0.023-0.539-0.057-0.811-0.075c-0.863-0.059-1.731-0.096-2.604-0.111
			C40.744-0.203,27.453,5.064,17.447,14.905C7.438,24.748,1.926,37.898,1.926,51.933v273.749c0,4.025,3.262,7.287,7.287,7.287
			s7.287-3.262,7.287-7.287V51.933c0-10.097,3.965-19.557,11.165-26.638c7.198-7.08,16.694-10.891,26.837-10.716
			C74.749,14.917,91.22,32.004,91.22,52.668v5.994v365.35c-9.585-9.917-22.972-15.869-37.36-15.869
			c-14.654,0-27.909,6.1-37.361,15.894v-53.079c0-4.025-3.262-7.287-7.287-7.287c-4.025,0-7.287,3.262-7.287,7.287v89.114
			c0,28.634,23.296,51.93,51.93,51.93h433.778c12.375,0,22.443-10.068,22.443-22.443V73.819
			C510.078,61.444,500.009,51.376,487.635,51.376z"/>
	</g>
</g>
<g>
	<g>
		<path fill="#CCA01C" d="M456.382,155.881c4.025,0,7.287-3.262,7.287-7.287v-22.481c0-9.992-8.13-18.122-18.122-18.122H142.898
			c-9.992,0-18.122,8.13-18.122,18.122V428.76c0,9.993,8.13,18.123,18.122,18.123h302.648c9.992,0,18.122-8.13,18.122-18.123
			V211.835c0-4.025-3.262-7.287-7.287-7.287c-4.025,0-7.287,3.262-7.287,7.287v48.869h-93.47c-4.025,0-7.287,3.262-7.287,7.287
			c0,4.025,3.262,7.287,7.287,7.287h93.47v61h-33.116c-4.025,0-7.287,3.262-7.287,7.287c0,4.025,3.262,7.287,7.287,7.287h33.116
			v77.91c0,1.957-1.592,3.55-3.549,3.55H274.919v-81.46h70.736c4.025,0,7.287-3.262,7.287-7.287c0-4.025-3.262-7.287-7.287-7.287
			H213.138c-4.025,0-7.287,3.262-7.287,7.287c0,4.025,3.262,7.287,7.287,7.287h47.207v81.46H142.898
			c-1.957,0-3.549-1.593-3.549-3.55v-77.91h23.669c4.025,0,7.287-3.262,7.287-7.287c0-4.025-3.262-7.287-7.287-7.287h-23.669
			V229.273h110.789c4.025,0,7.287-3.262,7.287-7.287v-33.768c0-4.025-3.262-7.287-7.287-7.287c-4.025,0-7.287,3.262-7.287,7.287
			v26.481H139.349v-88.586c0-1.957,1.592-3.549,3.549-3.549h99.953v20.52c0,4.025,3.262,7.287,7.287,7.287
			c4.025,0,7.287-3.262,7.287-7.287v-20.52h90.915v101.342c0,4.025,3.262,7.287,7.287,7.287c4.025,0,7.287-3.262,7.287-7.287
			V122.564h82.634c1.957,0,3.549,1.592,3.549,3.549v22.481C449.096,152.62,452.358,155.881,456.382,155.881z"/>
	</g>
</g>
<g>
</g>
<g>
</g>
<g>
</g>
<g>
</g>
<g>
</g>
<g>
</g>
<g>
</g>
<g>
</g>
<g>
</g>
<g>
</g>
<g>
</g>
<g>
</g>
<g>
</g>
<g>
</g>
<g>
</g>
</svg>
