<svg id="Capa_1" enable-background="new 0 0 512 512" height="512" viewBox="0 0 512 512" width="512" xmlns="http://www.w3.org/2000/svg"><g><g><path fill="#CCA01C" d="m130.496 200.953h157.465c7.715 0 13.991-6.276 13.991-13.991v-157.465c0-7.715-6.276-13.992-13.991-13.992h-157.465c-7.715 0-13.991 6.277-13.991 13.992v3.271h-26.869v-6.106c0-14.702-11.96-26.662-26.662-26.662s-26.662 11.96-26.662 26.662v275.67c0 4.142 3.358 7.5 7.5 7.5s7.5-3.358 7.5-7.5v-275.67c0-6.431 5.231-11.662 11.662-11.662s11.662 5.231 11.662 11.662v13.606 36.142 63.638 36.142 278.233h-23.324v-117.876c0-4.142-3.358-7.5-7.5-7.5s-7.5 3.358-7.5 7.5v117.876h-7.552c-15.859 0-28.76 12.889-28.76 28.732v16.923c0 6.527 5.31 11.837 11.837 11.837h102.274c6.542 0 11.865-5.31 11.865-11.837v-16.923c0-15.843-12.901-28.732-28.76-28.732h-7.581v-270.733h26.868v3.271c.001 7.716 6.278 13.992 13.993 13.992zm-19.519 282.202v13.76h-95.977v-13.76c0-7.572 6.173-13.732 13.76-13.732h15.052 38.324 15.081c7.587 0 13.76 6.16 13.76 13.732zm-21.341-399.244h26.868v48.638h-26.868zm41.868-53.406h155.448v155.448h-155.448v-9.763-36.142-63.637-36.142zm-15 17.264v21.142h-26.868v-21.142zm-26.868 120.921v-21.142h26.868v21.142z"/><path fill="#CCA01C" d="m512 316.024c0-16.921-13.69-30.688-30.518-30.688h-28.673l-9.819-20.714c-5.928-12.504-10.408-21.035-18.367-25.499-7.348-4.121-15.734-4.093-30.993-4.048l-125.801.003-1.007-.003c-15.236-.049-23.626-.073-30.971 4.049-7.955 4.464-12.435 12.994-18.362 25.498l-9.819 20.714h-28.673c-16.828 0-30.518 13.766-30.518 30.688 0 16.781 13.466 30.452 30.102 30.677l-8.683 18.318c-4.839 10.181-5.175 11.586-5.128 21.483.004.869.008 68.222.008 68.222 0 5.668.008 14.396 8.079 17.615v20.908c0 10.341 8.413 18.753 18.753 18.753h34.781c10.325 0 18.725-8.413 18.725-18.753v-19.657h68.271c4.143 0 7.5-3.358 7.5-7.5s-3.357-7.5-7.5-7.5h-133.03c-.183 0-.351-.002-.505-.006-.074-1.254-.079-71.262-.083-72.152-.033-7.169-.033-7.169 3.68-14.981l11.727-24.739h270.126l11.731 24.747c3.687 7.756 3.687 7.756 3.649 14.843-.005.925-.01 71.028-.082 72.284-.146.004-133.084.006-133.084.006-4.143 0-7.5 3.358-7.5 7.5s3.357 7.5 7.5 7.5h67.817v19.656c0 10.341 8.412 18.753 18.753 18.753h34.781c10.341 0 18.754-8.413 18.754-18.753v-20.914c8.043-3.223 8.051-11.945 8.051-17.609 0 0 .005-67.444.01-68.346.051-9.725-.331-11.322-5.099-21.352l-8.687-18.325c16.637-.226 30.104-13.897 30.104-30.678zm-348.521 0c0-8.65 6.961-15.688 15.518-15.688h21.563l-14.872 31.375h-6.69c-8.558 0-15.519-7.037-15.519-15.687zm66.638 157.566v19.656c0 2.035-1.706 3.753-3.725 3.753h-34.781c-2.035 0-3.753-1.719-3.753-3.753v-19.656zm.926-202.543c5.262-11.1 8.422-16.75 12.148-18.841 3.904-2.19 11.304-2.171 23.585-2.13l125.891.003 1.009-.003c12.29-.041 19.702-.061 23.61 2.131 3.729 2.091 6.889 7.741 12.149 18.84l28.757 60.665h-255.905zm241.579 222.2c0 2.035-1.719 3.753-3.754 3.753h-34.781c-2.034 0-3.753-1.719-3.753-3.753v-19.657h42.288zm8.86-161.536h-6.69l-14.873-31.375h21.563c8.557 0 15.518 7.038 15.518 15.688s-6.961 15.687-15.518 15.687z"/><path fill="#CCA01C" d="m292.213 399.436h76.054c4.143 0 7.5-3.358 7.5-7.5s-3.357-7.5-7.5-7.5h-76.054c-4.143 0-7.5 3.358-7.5 7.5s3.357 7.5 7.5 7.5z"/><path fill="#CCA01C" d="m292.213 433.338h76.054c4.143 0 7.5-3.358 7.5-7.5s-3.357-7.5-7.5-7.5h-76.054c-4.143 0-7.5 3.358-7.5 7.5s3.357 7.5 7.5 7.5z"/><path fill="#CCA01C" d="m456.129 401.829c0-17.375-14.122-31.509-31.481-31.509-17.374 0-31.509 14.135-31.509 31.509s14.135 31.51 31.509 31.51c17.359-.001 31.481-14.136 31.481-31.51zm-47.99 0c0-9.103 7.406-16.509 16.509-16.509 9.088 0 16.481 7.406 16.481 16.509 0 9.104-7.394 16.51-16.481 16.51-9.103-.001-16.509-7.407-16.509-16.51z"/><path fill="#CCA01C" d="m204.35 401.829c0 17.375 14.123 31.51 31.481 31.51 17.375 0 31.509-14.135 31.509-31.51s-14.135-31.509-31.509-31.509c-17.358-.001-31.481 14.134-31.481 31.509zm47.991 0c0 9.104-7.406 16.51-16.509 16.51-9.088 0-16.481-7.406-16.481-16.51 0-9.103 7.394-16.509 16.481-16.509 9.103-.001 16.509 7.406 16.509 16.509z"/></g><path fill="#CCA01C" d="m211.309 45.459h-30.779c-4.081 0-7.5 3.418-7.5 7.5v110.541c0 4.142 3.358 7.5 7.5 7.5s7.5-3.358 7.5-7.5v-40.556c7.208-.04 17.942-.095 23.279-.095 21.673 0 39.306-17.358 39.306-38.695s-17.633-38.695-39.306-38.695zm0 62.39c-5.305 0-15.886.054-23.108.094-.041-7.404-.095-18.378-.095-23.789 0-4.554-.031-16.001-.054-23.695h23.256c13.175 0 24.306 10.851 24.306 23.695s-11.131 23.695-24.305 23.695z"/></g></svg>